<svg id="Layer_1" data-name="Layer 1" xmlns="http://www.w3.org/2000/svg" viewBox="0 0 167.93 167.93"><defs><style>.cls-1{fill:#069;}</style></defs><path class="cls-1" d="M192.5,109a19.12,19.12,0,0,0-18,12.76H159.09a32.1,32.1,0,0,0-24.94-25V81.29a19.1,19.1,0,1,0-12,.35V96.55a32.1,32.1,0,0,0-25.94,25.22H80.86a19.11,19.11,0,1,0,.27,12h15a32.09,32.09,0,0,0,26.08,26v14.92a19.15,19.15,0,1,0,12,.34V159.54a32.07,32.07,0,0,0,25.08-25.8h15A19.13,19.13,0,1,0,192.5,109Z" transform="translate(-43.7 -44.18)"/></svg>